<?xml version="1.0" standalone="no"?>
<!DOCTYPE svg PUBLIC "-//W3C//DTD SVG 20010904//EN"
 "http://www.w3.org/TR/2001/REC-SVG-20010904/DTD/svg10.dtd">
<svg version="1.0" xmlns="http://www.w3.org/2000/svg"
 width="860.000000pt" height="861.000000pt" viewBox="0 0 860.000000 861.000000"
 preserveAspectRatio="xMidYMid meet">

<g transform="translate(0.000000,861.000000) scale(0.100000,-0.100000)"
fill="#000000" stroke="none">
<path d="M4334 8306 c-3 -15 -41 -49 -102 -94 -127 -92 -940 -628 -2367 -1562
-717 -470 -925 -612 -925 -631 0 -5 14 -9 31 -9 l30 0 -3 -1702 c-2 -1324 -6
-1708 -15 -1724 -10 -18 -10 -24 2 -34 7 -6 15 -21 17 -32 2 -13 16 -24 40
-33 59 -20 434 -256 1223 -770 61 -39 160 -103 220 -142 61 -39 324 -209 585
-378 661 -429 765 -496 845 -547 165 -106 274 -173 333 -204 l63 -34 69 35
c79 40 147 80 510 306 146 91 364 226 485 301 458 282 869 536 1130 698 149
92 392 243 540 335 747 462 807 505 719 505 l-24 0 0 888 c0 489 -3 1261 -7
1715 l-6 827 31 0 c80 0 39 31 -600 455 -224 149 -521 345 -660 436 -1543
1015 -1994 1316 -2041 1360 -22 22 -50 39 -63 39 -13 0 -26 5 -29 10 -11 17
-24 11 -31 -14z m316 -310 c91 -58 235 -153 321 -209 85 -56 313 -205 506
-332 193 -126 350 -232 347 -234 -2 -2 -133 -8 -291 -13 -168 -5 -292 -13
-297 -18 -13 -13 1 -37 37 -64 23 -17 51 -21 194 -28 93 -5 210 -11 261 -14
l94 -6 -8 -61 c-11 -93 -7 -205 11 -288 23 -103 94 -246 144 -292 46 -42 110
-63 149 -49 40 14 34 47 -39 213 l-64 144 -3 168 c-2 97 1 167 6 167 18 0 210
-121 692 -439 272 -180 554 -365 627 -411 73 -47 132 -88 133 -91 0 -8 -988
-26 -2512 -45 l-548 -6 0 188 c0 286 19 1571 26 1722 l6 133 22 -14 c11 -8 95
-62 186 -121z m-356 -1523 l-6 -353 -1514 0 c-833 0 -1514 2 -1514 4 0 2 71
50 158 106 86 56 289 188 450 293 359 235 792 518 1717 1122 l710 464 3 -642
c2 -353 0 -801 -4 -994z m3286 -461 c0 -18 -1293 -3278 -1304 -3290 -9 -8
-1856 3225 -1856 3247 0 9 396 16 1695 31 484 6 943 12 1020 13 374 7 445 6
445 -1z m-3324 -24 c8 -8 -34 -76 -455 -733 -162 -253 -329 -515 -372 -581
-191 -301 -988 -1532 -1130 -1748 l-157 -239 -55 174 c-163 510 -967 3110
-967 3125 0 12 3123 14 3136 2z m556 -939 c253 -442 558 -973 676 -1179 476
-831 705 -1240 698 -1247 -9 -10 -262 -12 -2081 -19 -979 -4 -1797 -4 -1818 0
-27 5 -37 11 -33 21 4 12 73 120 306 485 91 142 287 448 550 860 670 1048
1153 1801 1192 1858 19 27 34 40 39 35 6 -6 217 -372 471 -814z m2817 -1697
c1 -680 0 -723 -16 -730 -22 -9 -1229 -9 -1238 -1 -3 4 121 328 276 720 154
393 312 795 350 894 38 99 192 488 342 865 l272 684 6 -854 c3 -470 7 -1180 8
-1578z m-6366 1788 c153 -491 237 -766 237 -776 0 -3 -6 -1 -14 5 -20 17 -25
5 -41 -101 -8 -51 -23 -133 -34 -181 -24 -99 -27 -190 -8 -226 21 -43 36 -36
64 29 23 52 28 58 35 41 4 -11 32 -154 63 -318 62 -331 110 -542 129 -569 18
-23 36 -9 36 27 0 51 -168 1002 -205 1167 -44 188 10 23 395 -1213 65 -209
121 -387 125 -396 4 -12 -1 -18 -17 -23 -13 -3 -224 -6 -470 -6 l-448 0 1 608
c1 572 5 684 22 640 12 -31 27 -19 57 44 16 34 31 55 34 47 2 -8 21 -104 41
-214 88 -480 139 -695 166 -695 30 0 22 66 -58 525 -103 595 -157 835 -183
809 -5 -5 -18 -61 -29 -124 -31 -178 -33 -187 -42 -165 -4 11 -8 340 -8 731
-1 618 2 784 14 772 2 -2 64 -199 138 -438z m1177 -2908 c277 -279 340 -351
340 -388 0 -13 -3 -24 -8 -24 -4 0 -99 72 -212 161 -426 334 -520 404 -520
382 0 -20 96 -101 557 -470 383 -306 440 -350 450 -340 3 4 -5 24 -19 44 -68
104 -67 102 -8 53 68 -56 840 -820 840 -831 0 -9 -505 315 -850 546 -186 124
-230 159 -259 200 -96 141 -489 563 -553 596 -22 11 -78 27 -126 35 -99 18
-113 24 -244 111 -54 36 -102 63 -108 61 -6 -2 28 -41 75 -87 47 -46 85 -90
85 -96 0 -21 75 -81 141 -114 35 -17 125 -79 199 -137 205 -161 350 -277 350
-281 0 -4 -66 38 -315 201 -241 159 -412 270 -728 474 -114 74 -206 136 -204
139 5 4 489 19 721 21 l139 2 257 -258z m3660 252 c0 -3 -87 -98 -192 -212
-328 -351 -598 -642 -709 -762 -58 -63 -275 -299 -484 -525 -208 -226 -380
-412 -382 -414 -11 -14 -1983 1886 -1983 1911 0 5 844 8 1875 8 1031 0 1875
-3 1875 -6z m1285 -13 c68 -6 69 -6 45 -22 -48 -31 -1827 -1130 -2330 -1439
-146 -90 -300 -185 -342 -211 -43 -27 -78 -45 -78 -41 0 4 107 122 238 263
130 141 487 530 792 863 l555 607 525 -6 c289 -4 556 -10 595 -14z m-5156
-405 c47 -25 272 -268 259 -281 -12 -12 -331 271 -322 286 8 13 31 11 63 -5z"/>
<path d="M4822 7145 c-18 -30 -66 -84 -107 -121 -40 -36 -72 -71 -69 -78 6
-15 67 -54 98 -62 35 -9 88 11 148 56 37 28 55 36 64 29 6 -5 92 -112 190
-237 218 -277 264 -326 321 -341 46 -13 92 -6 100 14 2 7 -3 28 -12 46 -35 66
-481 645 -541 701 -36 33 -74 48 -122 48 -34 0 -40 -4 -70 -55z"/>
<path d="M3325 7195 c-63 -14 -122 -38 -167 -68 -27 -18 -105 -123 -97 -131 2
-2 57 20 123 51 199 92 249 84 308 -47 16 -38 37 -71 45 -75 33 -12 103 55
139 132 42 88 19 120 -101 142 -77 14 -175 13 -250 -4z"/>
<path d="M3240 6895 c-8 -2 -48 -9 -88 -15 -63 -10 -75 -16 -82 -36 -18 -46
-8 -54 90 -74 86 -17 85 -16 82 -123 -3 -112 9 -139 52 -119 40 18 125 102
147 144 10 20 19 50 19 65 0 30 -53 142 -73 155 -11 7 -114 9 -147 3z"/>
<path d="M2696 6628 c-43 -43 -84 -162 -64 -186 30 -36 90 -52 198 -52 167 0
290 34 290 80 0 33 -31 40 -157 34 -65 -3 -123 -2 -129 3 -7 4 -18 40 -25 78
-14 69 -15 70 -47 73 -26 3 -39 -3 -66 -30z"/>
<path d="M3170 6485 c-8 -9 -8 -15 -2 -15 18 0 42 12 42 21 0 14 -26 10 -40
-6z"/>
<path d="M5723 5723 c-35 -5 -73 -43 -73 -75 0 -28 26 -73 56 -97 24 -19 40
-21 173 -21 207 0 281 -8 281 -30 0 -22 -92 -152 -169 -240 -82 -93 -146 -182
-177 -248 -23 -49 -28 -73 -32 -168 -5 -122 8 -185 53 -266 30 -54 97 -119
152 -146 133 -68 323 -46 422 49 58 56 83 116 89 215 6 105 -7 147 -54 169
-61 29 -85 8 -123 -105 -54 -162 -117 -211 -212 -166 -85 40 -138 123 -139
217 0 82 38 149 220 391 186 247 215 298 215 384 0 48 -5 68 -24 96 l-24 35
-126 7 c-131 6 -452 6 -508 -1z"/>
<path d="M2042 5720 c-73 -33 -173 -142 -220 -240 -74 -153 -102 -311 -102
-565 l0 -164 39 -110 c55 -156 79 -194 146 -227 49 -24 64 -26 130 -22 178 12
306 132 374 353 53 169 83 492 63 663 -18 155 -105 285 -211 316 -75 22 -166
20 -219 -4z m166 -190 c59 -36 67 -71 66 -275 -1 -206 -20 -350 -65 -492 -34
-107 -71 -154 -137 -174 -63 -18 -105 4 -137 74 -23 47 -25 65 -25 189 0 201
37 449 83 559 30 71 106 139 157 139 14 0 40 -9 58 -20z"/>
<path d="M2703 5724 c-36 -8 -66 -53 -59 -88 9 -43 51 -93 88 -104 18 -6 104
-13 192 -15 90 -3 163 -10 169 -16 7 -7 -45 -67 -174 -198 -269 -273 -324
-345 -349 -459 -10 -42 -7 -60 31 -188 23 -77 47 -152 54 -166 34 -66 107
-102 204 -102 130 1 258 61 337 159 69 85 111 230 85 296 -10 26 -14 28 -58
25 -53 -3 -63 -14 -153 -158 -50 -80 -94 -116 -155 -125 -51 -8 -101 17 -133
65 -22 32 -24 43 -19 118 4 66 10 90 30 120 14 21 121 139 238 263 325 341
353 380 347 486 -4 84 0 83 -356 88 -163 2 -307 2 -319 -1z"/>
<path d="M4140 4361 c-76 -7 -116 -29 -135 -74 -33 -79 -95 -442 -95 -556 0
-54 3 -62 31 -85 53 -45 67 -44 192 23 70 37 133 64 161 67 178 25 314 -173
250 -362 -48 -142 -142 -198 -287 -170 -47 9 -105 60 -158 137 -52 77 -82 99
-134 99 -130 0 -127 -170 4 -293 89 -83 207 -127 341 -127 181 1 333 72 416
197 60 90 76 157 72 298 -3 105 -6 127 -29 175 -33 69 -126 162 -198 198 -49
23 -70 27 -166 30 -89 3 -122 0 -175 -17 -35 -11 -66 -18 -69 -15 -3 2 3 55
12 116 24 160 6 150 284 159 126 4 241 10 256 14 32 8 57 50 57 95 0 46 -16
68 -58 81 -42 13 -468 21 -572 10z"/>
<path d="M7233 4368 c-6 -7 -34 -60 -63 -118 -29 -58 -73 -136 -98 -175 -25
-38 -53 -88 -63 -110 -20 -43 -25 -120 -10 -130 6 -3 33 22 60 55 44 53 51 58
51 37 0 -14 -25 -173 -56 -354 -60 -351 -69 -438 -44 -438 8 0 21 13 28 28 30
62 200 995 214 1169 3 42 -4 55 -19 36z"/>
<path d="M7408 4353 c-9 -10 -21 -28 -27 -40 -15 -28 -116 -441 -126 -512 -8
-61 -1 -71 55 -71 84 -1 80 9 80 -189 l1 -176 23 28 c30 37 63 134 77 227 19
124 -2 281 -41 305 -17 11 -55 -2 -89 -31 -17 -14 -31 -22 -31 -18 0 4 16 69
36 146 l37 138 63 0 c57 0 64 2 64 20 0 10 13 34 29 52 58 67 67 112 25 128
-14 6 -56 10 -93 10 -52 0 -71 -4 -83 -17z"/>
<path d="M7173 3403 c-17 -42 -30 -229 -19 -286 13 -68 96 -134 96 -76 0 12
24 48 55 81 60 65 73 105 30 94 -14 -3 -36 -9 -49 -12 -33 -8 -43 13 -56 119
-16 130 -28 147 -57 80z"/>
<path d="M4119 2371 c-102 -19 -232 -101 -262 -164 -40 -83 -8 -164 86 -228
33 -21 63 -39 68 -39 20 0 6 -19 -40 -56 -61 -49 -81 -81 -81 -132 0 -72 89
-156 212 -199 65 -23 391 -14 472 12 63 21 137 78 161 126 34 65 9 140 -66
195 -27 20 -49 37 -49 40 0 2 24 19 53 37 89 57 127 118 127 205 0 28 -10 43
-56 87 -62 60 -116 90 -190 105 -67 13 -378 21 -435 11z m343 -143 c52 -29 70
-60 64 -113 -9 -78 -93 -121 -221 -113 -125 8 -200 59 -198 135 2 51 48 93
128 114 57 15 180 3 227 -23z m-20 -392 c117 -57 30 -181 -127 -179 -70 1
-147 29 -164 61 -28 53 2 107 71 130 49 16 176 10 220 -12z"/>
<path d="M6724 2313 c-211 -158 -936 -747 -926 -751 14 -4 320 152 447 229
128 78 128 108 -1 49 -35 -16 -62 -25 -59 -19 4 5 113 96 243 202 272 220 394
323 405 343 18 32 -25 11 -109 -53z"/>
<path d="M6449 2361 c-38 -8 -133 -71 -142 -95 -8 -21 2 -26 47 -26 23 0 47
-4 54 -8 8 -6 -64 -53 -210 -137 -453 -263 -698 -452 -698 -540 0 -29 80 -13
174 33 161 81 364 221 350 243 -9 15 -16 12 -125 -57 -120 -77 -223 -128 -227
-114 -5 14 32 59 93 110 50 42 176 120 560 345 246 144 362 226 349 247 -6 10
-173 9 -225 -1z"/>
</g>
</svg>
